<?xml version="1.0" encoding="UTF-8"?>
<svg version="1.1" xmlns="http://www.w3.org/2000/svg" width="246" height="196">
<path d="M0 0 C1.2065625 0.0309375 1.2065625 0.0309375 2.4375 0.0625 C2.89125 1.031875 3.345 2.00125 3.8125 3 C5.09536221 6.13329582 5.09536221 6.13329582 7.4375 7.0625 C9.25301358 7.15808781 11.07207812 7.1888054 12.8901062 7.18948364 C14.04822815 7.19230347 15.2063501 7.19512329 16.39956665 7.19802856 C17.67649384 7.19600433 18.95342102 7.1939801 20.26904297 7.19189453 C21.622437 7.19324903 22.97583067 7.19502923 24.32922363 7.19720459 C28.01108369 7.20177403 31.6929158 7.19999113 35.37477636 7.1968255 C39.224634 7.19429836 43.0744892 7.19664053 46.92434692 7.19821167 C53.39244009 7.20003276 59.86052185 7.19762909 66.32861328 7.19287109 C73.80736293 7.18743318 81.2860853 7.18918795 88.76483428 7.1946975 C95.18187152 7.19923582 101.59890055 7.19987551 108.01593888 7.19725883 C111.85018811 7.19569943 115.68442453 7.19549299 119.51867294 7.19879532 C123.12521388 7.2016843 126.73171969 7.1996794 130.33825684 7.19390106 C132.29362947 7.19194801 134.24900508 7.19491898 136.20437622 7.19802856 C137.95001862 7.19379883 137.95001862 7.19379883 139.73092651 7.18948364 C140.74230116 7.18910662 141.7536758 7.18872959 142.79569817 7.18834114 C145.16910221 7.07528502 147.16958251 6.74158043 149.4375 6.0625 C149.7675 4.0825 150.0975 2.1025 150.4375 0.0625 C152.4175 0.0625 154.3975 0.0625 156.4375 0.0625 C156.4375 14.2525 156.4375 28.4425 156.4375 43.0625 C154.4575 43.0625 152.4775 43.0625 150.4375 43.0625 C150.004375 41.8559375 150.004375 41.8559375 149.5625 40.625 C148.70487432 37.9298532 148.70487432 37.9298532 146.4375 37.0625 C144.80332405 36.9722165 143.16547163 36.94494342 141.52880859 36.94897461 C140.50790131 36.94905014 139.48699402 36.94912567 138.43515015 36.94920349 C137.32990997 36.95436478 136.2246698 36.95952606 135.0859375 36.96484375 C133.39218491 36.96696617 133.39218491 36.96696617 131.66421509 36.96913147 C128.04695012 36.97474256 124.42974636 36.98729697 120.8125 37 C118.36458423 37.00501357 115.91666748 37.00957672 113.46875 37.01367188 C107.45831234 37.0247156 101.44791054 37.04146456 95.4375 37.0625 C95.42794695 52.90044098 95.45252396 68.7379368 95.5177784 84.57572556 C95.54728056 91.92946546 95.56559636 99.28291612 95.55761719 106.63671875 C95.55069115 113.04604022 95.56471378 119.45491413 95.60393608 125.86412549 C95.62397393 129.25819737 95.63349082 132.65156633 95.61792374 136.04567719 C95.60581223 139.83421886 95.63072576 143.62080918 95.66455078 147.40917969 C95.64621941 149.09879318 95.64621941 149.09879318 95.6275177 150.82254028 C95.67395432 153.69874789 95.74569473 156.27000205 96.4375 159.0625 C99.3521894 161.51855676 99.3521894 161.51855676 102.4375 163.0625 C102.4375 164.7125 102.4375 166.3625 102.4375 168.0625 C85.2775 168.0625 68.1175 168.0625 50.4375 168.0625 C50.4375 166.0825 50.4375 164.1025 50.4375 162.0625 C52.4175 161.0725 54.3975 160.0825 56.4375 159.0625 C56.7675 118.8025 57.0975 78.5425 57.4375 37.0625 C39.9475 37.0625 22.4575 37.0625 4.4375 37.0625 C3.7775 39.0425 3.1175 41.0225 2.4375 43.0625 C0.4575 43.0625 -1.5225 43.0625 -3.5625 43.0625 C-3.58714574 37.09936834 -3.605334 31.13626605 -3.61743164 25.1730957 C-3.62247278 23.14281702 -3.62930557 21.11254198 -3.63793945 19.08227539 C-3.65001467 16.17072653 -3.65573034 13.2592255 -3.66015625 10.34765625 C-3.66531754 9.4341188 -3.67047882 8.52058136 -3.67579651 7.57936096 C-3.67599168 5.40674573 -3.62461805 3.23422704 -3.5625 1.0625 C-2.5625 0.0625 -2.5625 0.0625 0 0 Z " fill="#3D7718" transform="translate(16.5625,10.9375)"/>
<path d="M0 0 C13.2 0 26.4 0 40 0 C40 1.32 40 2.64 40 4 C38.02 4.99 38.02 4.99 36 6 C35.67 37.02 35.34 68.04 35 100 C47.33375 99.855625 59.6675 99.71125 72.375 99.5625 C76.27231934 99.51939697 80.16963867 99.47629395 84.18505859 99.43188477 C87.6724478 99.38864109 87.6724478 99.38864109 91.15982056 99.34410095 C92.71554488 99.32485455 94.2712938 99.3075385 95.82705688 99.29173279 C98.18084604 99.26744741 100.53448496 99.23707624 102.88818359 99.20532227 C103.93133004 99.19666688 103.93133004 99.19666688 104.99555016 99.18783665 C108.62049607 99.17047121 108.62049607 99.17047121 112 98 C113.13350534 95.98330173 113.13350534 95.98330173 114 94 C115.65 94.33 117.3 94.66 119 95 C119 105.89 119 116.78 119 128 C117.02 128 115.04 128 113 128 C112.67 126.35 112.34 124.7 112 123 C75.04 122.67 38.08 122.34 0 122 C0 120.35 0 118.7 0 117 C2.475 116.505 2.475 116.505 5 116 C5.11675058 101.84007955 5.20461498 87.68023362 5.25906086 73.51993084 C5.28518823 66.9451653 5.32064459 60.3707224 5.37719727 53.79614258 C5.43140349 47.45488616 5.46139686 41.11394064 5.47438622 34.77247047 C5.48364648 32.34944575 5.50172896 29.92643862 5.52865028 27.50354576 C5.56478777 24.11746417 5.56995157 20.73267798 5.56762695 17.34643555 C5.58560333 16.33799088 5.60357971 15.3295462 5.62210083 14.2905426 C5.60320519 11.7578626 5.5684999 9.4683271 5 7 C2.58581733 5.04941218 2.58581733 5.04941218 0 4 C0 2.68 0 1.36 0 0 Z " fill="#92DD60" transform="translate(122,56)"/>
<path d="M0 0 C0.33 0 0.66 0 1 0 C1 31.02 1 62.04 1 94 C4.465 93.505 4.465 93.505 8 93 C10.31387268 92.9178068 12.62974045 92.88209781 14.94506836 92.88647461 C15.59957977 92.88632858 16.25409119 92.88618256 16.92843628 92.8860321 C19.06560727 92.88672199 21.20268822 92.89447054 23.33984375 92.90234375 C24.83199516 92.90421122 26.32414719 92.90563357 27.81629944 92.90663147 C31.72398604 92.91043075 35.63163486 92.92023865 39.53930664 92.93133545 C43.53466277 92.9416055 47.53002507 92.94614103 51.52539062 92.95117188 C59.35027755 92.96186348 67.17513346 92.97890846 75 93 C75 93.66 75 94.32 75 95 C76.98 95.495 76.98 95.495 79 96 C68.84733849 96.02312392 58.6946832 96.04091534 48.54200077 96.05181217 C43.82820267 96.05704089 39.11442253 96.06413834 34.40063477 96.07543945 C29.85544596 96.08626873 25.31027448 96.09227692 20.76507378 96.09487724 C19.02705042 96.09673142 17.28902806 96.10035189 15.55101204 96.10573006 C13.12521405 96.11294103 10.69948854 96.11399092 8.27368164 96.11352539 C7.54791931 96.11712067 6.82215698 96.12071594 6.07440186 96.12442017 C1.11405216 96.11405216 1.11405216 96.11405216 0 95 C-0.09526806 92.04753646 -0.12552452 89.11851579 -0.11352539 86.16577148 C-0.11367142 85.23903625 -0.11381744 84.31230103 -0.1139679 83.35748291 C-0.11326838 80.27866313 -0.10547421 77.19990303 -0.09765625 74.12109375 C-0.09579221 71.99259982 -0.09436824 69.86410547 -0.09336853 67.73561096 C-0.08954228 62.1213768 -0.07971108 56.50716832 -0.06866455 50.89294434 C-0.05845273 45.16886747 -0.0538714 39.44478647 -0.04882812 33.72070312 C-0.03808891 22.48045744 -0.0210112 11.24023085 0 0 Z " fill="#9CEE63" transform="translate(154,63)"/>
</svg>
