<?xml version="1.0" encoding="UTF-8"?>
<svg version="1.1" xmlns="http://www.w3.org/2000/svg" width="651" height="151">
<path d="M0 0 C3.79797661 1.93230389 6.45072496 3.93410809 9.5625 6.8125 C10.408125 6.049375 11.25375 5.28625 12.125 4.5 C18.83184877 -0.95221886 24.47154933 -1.80226161 33.046875 -1.6015625 C39.5608234 -0.83436413 45.02134837 1.78858626 49.5 6.625 C54.20015336 13.88887337 54.99419861 19.98828736 54.85546875 28.4375 C54.85122391 29.42500244 54.84697906 30.41250488 54.84260559 31.42993164 C54.82592646 34.55774177 54.78829435 37.6848874 54.75 40.8125 C54.73493925 42.94400106 54.72125329 45.0755123 54.70898438 47.20703125 C54.67862088 52.40931087 54.61987865 57.61016907 54.5625 62.8125 C45.9825 62.8125 37.4025 62.8125 28.5625 62.8125 C28.51351562 60.34394531 28.46453125 57.87539062 28.4140625 55.33203125 C28.36000114 52.93247592 28.30271398 50.53301769 28.24511719 48.13354492 C28.20691304 46.47020752 28.17204537 44.80678992 28.140625 43.14331055 C28.09478766 40.7475932 28.03682533 38.35242391 27.9765625 35.95703125 C27.96501129 35.2172554 27.95346008 34.47747955 27.94155884 33.71528625 C27.82753977 29.69644637 27.52011511 26.36751885 25.5625 22.8125 C22.27321522 21.6317311 20.90965311 21.6967823 17.5625 22.8125 C14.84693855 26.42639977 15.21364225 30.7495983 15.1484375 35.078125 C15.12907135 35.87152283 15.1097052 36.66492065 15.0897522 37.48236084 C15.03011639 40.00896557 14.98363557 42.53561625 14.9375 45.0625 C14.89930545 46.77866537 14.86025285 48.49481187 14.8203125 50.2109375 C14.72442814 54.41130456 14.64033833 58.61176134 14.5625 62.8125 C10.25001391 62.84136537 5.93755238 62.85925255 1.625 62.875 C0.39330078 62.88337891 -0.83839844 62.89175781 -2.10742188 62.90039062 C-3.27724609 62.90361328 -4.44707031 62.90683594 -5.65234375 62.91015625 C-7.27837524 62.91801147 -7.27837524 62.91801147 -8.93725586 62.92602539 C-11.4375 62.8125 -11.4375 62.8125 -12.4375 61.8125 C-12.56058006 59.11045438 -12.62360138 56.43000003 -12.6484375 53.7265625 C-12.67650672 52.05728187 -12.70517119 50.38801116 -12.734375 48.71875 C-12.77566015 46.07650026 -12.81253054 43.43443563 -12.83886719 40.79199219 C-12.86643656 38.24895541 -12.91230945 35.70677198 -12.9609375 33.1640625 C-12.96419037 32.37335358 -12.96744324 31.58264465 -12.97079468 30.76797485 C-13.0428369 26.54692839 -13.0428369 26.54692839 -14.77978516 22.79443359 C-16.54673775 21.56431192 -16.54673775 21.56431192 -19.4375 21.75 C-22.6294611 22.5366983 -22.6294611 22.5366983 -24.09301758 25.37744141 C-25.61916517 29.27664181 -25.91222944 32.7100988 -25.94921875 36.8359375 C-25.96716995 37.58211334 -25.98512115 38.32828918 -26.00361633 39.09707642 C-26.05743105 41.4604949 -26.09152067 43.82371486 -26.125 46.1875 C-26.15819872 47.79820454 -26.19269072 49.40888298 -26.22851562 51.01953125 C-26.3155566 54.95054479 -26.37586605 58.8806791 -26.4375 62.8125 C-35.0175 62.8125 -43.5975 62.8125 -52.4375 62.8125 C-52.4375 42.0225 -52.4375 21.2325 -52.4375 -0.1875 C-44.1875 -0.1875 -35.9375 -0.1875 -27.4375 -0.1875 C-27.1075 1.1325 -26.7775 2.4525 -26.4375 3.8125 C-25.0453125 2.8534375 -25.0453125 2.8534375 -23.625 1.875 C-16.86994246 -2.49591958 -7.58391881 -2.60146052 0 0 Z " fill="#88CB21" transform="translate(418.4375,52.1875)"/>
<path d="M0 0 C6.328021 3.35150742 9.80171339 8.04092677 12.9375 14.3125 C14.3372218 19.18575238 14.06350657 24.1823309 14.03515625 29.20703125 C14.0337413 30.15438644 14.03232635 31.10174164 14.03086853 32.07780457 C14.02528611 35.09356895 14.01273682 38.10925818 14 41.125 C13.99498273 43.17382705 13.99042022 45.22265527 13.98632812 47.27148438 C13.97617478 52.28520826 13.95659588 57.29877033 13.9375 62.3125 C5.3575 62.3125 -3.2225 62.3125 -12.0625 62.3125 C-12.11148438 59.92773438 -12.16046875 57.54296875 -12.2109375 55.0859375 C-12.26503123 52.76247171 -12.32230561 50.43910443 -12.37988281 48.11572266 C-12.41803759 46.50772518 -12.45291348 44.89964627 -12.484375 43.29150391 C-12.5303206 40.97268684 -12.58826381 38.6544238 -12.6484375 36.3359375 C-12.65998871 35.62319672 -12.67153992 34.91045593 -12.68344116 34.17611694 C-12.80897479 29.87838751 -13.50134039 26.31673744 -15.0625 22.3125 C-20.19478498 21.07929881 -20.19478498 21.07929881 -24.9375 23 C-28.68613299 27.07939473 -28.25183311 31.59039278 -28.37890625 36.921875 C-28.39968735 37.64868469 -28.42046844 38.37549438 -28.44187927 39.12432861 C-28.50705512 41.43695991 -28.5661104 43.74970093 -28.625 46.0625 C-28.66821566 47.63412575 -28.71183092 49.20574056 -28.75585938 50.77734375 C-28.86345277 54.6222852 -28.96276285 58.46731465 -29.0625 62.3125 C-37.6425 62.3125 -46.2225 62.3125 -55.0625 62.3125 C-55.0625 41.5225 -55.0625 20.7325 -55.0625 -0.6875 C-46.8125 -0.6875 -38.5625 -0.6875 -30.0625 -0.6875 C-29.7325 0.6325 -29.4025 1.9525 -29.0625 3.3125 C-28.22332031 2.77109375 -28.22332031 2.77109375 -27.3671875 2.21875 C-18.79506428 -2.74260749 -9.32230992 -3.7910727 0 0 Z " fill="#99E407" transform="translate(611.0625,52.6875)"/>
<path d="M0 0 C8.58 0 17.16 0 26 0 C26.03738281 2.46855469 26.07476562 4.93710937 26.11328125 7.48046875 C26.15953688 9.88005261 26.21075571 12.27948297 26.26245117 14.67895508 C26.29563655 16.34227108 26.32368834 18.00569796 26.34643555 19.66918945 C26.38009999 22.06509499 26.4324194 24.45999035 26.48828125 26.85546875 C26.49467117 27.5952446 26.5010611 28.33502045 26.50764465 29.09721375 C26.63239638 33.51112727 27.13402451 36.56406499 30 40 C33.55695956 40.50813708 35.85987777 40.79808556 38.875 38.6875 C41.44835588 34.82746618 41.21406298 30.72900293 41.31640625 26.26953125 C41.33718735 25.51911057 41.35796844 24.76868988 41.37937927 23.99552917 C41.44469926 21.60127816 41.50367792 19.20691861 41.5625 16.8125 C41.60570193 15.18813987 41.64931676 13.56379067 41.69335938 11.93945312 C41.8011389 7.95974498 41.90034215 3.97995299 42 0 C50.58 0 59.16 0 68 0 C68 20.79 68 41.58 68 63 C60.08 63 52.16 63 44 63 C43.34 61.68 42.68 60.36 42 59 C40.9275 59.639375 39.855 60.27875 38.75 60.9375 C31.91186445 65.01408081 24.51819293 64.84143366 16.9375 62.9375 C10.82768264 60.88505747 5.94880245 57.52680293 2.784729 51.8006897 C0.17604381 45.49839732 -0.54440476 40.18297535 -0.390625 33.3984375 C-0.38496521 32.435961 -0.37930542 31.4734845 -0.37347412 30.48184204 C-0.35130863 27.44569466 -0.30115133 24.41078301 -0.25 21.375 C-0.22990931 19.30079845 -0.21166308 17.22657816 -0.1953125 15.15234375 C-0.1549318 10.10071808 -0.07660572 5.05172133 0 0 Z " fill="#77B22C" transform="translate(287,52)"/>
<path d="M0 0 C4.72574715 4.48340114 7.71624892 11.40208835 8.10072327 17.91644287 C8.09850266 18.63592102 8.09628204 19.35539917 8.09399414 20.09667969 C8.09388084 21.32750275 8.09388084 21.32750275 8.09376526 22.58319092 C8.08860397 23.45937073 8.08344269 24.33555054 8.078125 25.23828125 C8.07671005 26.1426593 8.0752951 27.04703735 8.07383728 27.9788208 C8.06824786 30.86221652 8.05569728 33.74553407 8.04296875 36.62890625 C8.03795238 38.58593638 8.03338971 40.54296772 8.02929688 42.5 C8.01913355 47.29302296 7.99955603 52.08587729 7.98046875 56.87890625 C0.06046875 56.87890625 -7.85953125 56.87890625 -16.01953125 56.87890625 C-16.67953125 55.55890625 -17.33953125 54.23890625 -18.01953125 52.87890625 C-19.09203125 53.51828125 -20.16453125 54.15765625 -21.26953125 54.81640625 C-27.37021958 58.45335506 -33.72069154 58.69988767 -40.6171875 57.3828125 C-47.65791165 55.50316216 -52.09664228 53.14781749 -55.89453125 46.69140625 C-57.64942916 40.74425221 -57.8998958 35.47109075 -55.89453125 29.56640625 C-51.922372 23.87297799 -47.16074623 20.75372218 -40.44921875 19.3359375 C-36.15584451 18.7638136 -31.96918541 18.77157331 -27.64453125 18.81640625 C-26.81308594 18.82091797 -25.98164062 18.82542969 -25.125 18.83007812 C-23.08981228 18.84177461 -21.05466202 18.8597069 -19.01953125 18.87890625 C-22.25898855 15.06439368 -22.25898855 15.06439368 -26.78125 13.28515625 C-33.62991983 13.50460628 -39.58469217 14.48719615 -46.01953125 16.87890625 C-47.36053175 14.44534955 -48.69247981 12.00755324 -50.01953125 9.56640625 C-50.591875 8.5309668 -50.591875 8.5309668 -51.17578125 7.47460938 C-54.01953125 2.21875 -54.01953125 2.21875 -54.01953125 -1.12109375 C-51.9590327 -1.93865613 -49.89604272 -2.74994109 -47.83203125 -3.55859375 C-46.10919922 -4.23728516 -46.10919922 -4.23728516 -44.3515625 -4.9296875 C-30.24094497 -9.97510174 -12.32487274 -8.70375968 0 0 Z M-31.01953125 33.87890625 C-32.01483919 35.77659384 -32.01483919 35.77659384 -32.01953125 37.87890625 C-31.02953125 39.36390625 -31.02953125 39.36390625 -30.01953125 40.87890625 C-24.79165707 41.44905087 -24.79165707 41.44905087 -20.01953125 39.75390625 C-18.5985452 37.08955741 -18.82185864 34.8439954 -19.01953125 31.87890625 C-25.39823523 31.39709888 -25.39823523 31.39709888 -31.01953125 33.87890625 Z " fill="#42633A" transform="translate(148.01953125,58.12109375)"/>
<path d="M0 0 C6.28839966 5.11576776 9.95933073 10.98126559 10.99609375 19.08984375 C11.46241639 23.83942617 11.7928046 27.51628159 10.625 32.1875 C-2.905 32.5175 -16.435 32.8475 -30.375 33.1875 C-26.88776545 36.67473455 -24.80336357 37.33924376 -20.0625 37.4375 C-15.79058243 37.41669521 -13.14848744 36.205877 -9.375 34.1875 C-6.1816075 34.57466142 -4.56767567 35.62984578 -2.359375 37.91015625 C-1.83085938 38.44833984 -1.30234375 38.98652344 -0.7578125 39.54101562 C-0.21898437 40.10498047 0.31984375 40.66894531 0.875 41.25 C1.70644531 42.10174805 1.70644531 42.10174805 2.5546875 42.97070312 C3.91834214 44.36962469 5.27260417 45.77769114 6.625 47.1875 C1.74247222 53.70831525 -3.971653 56.36113376 -11.90234375 57.87109375 C-24.20461677 59.44531826 -37.2284219 57.78800367 -47.375 50.1875 C-54.85278919 43.32630045 -58.33400045 37.5145354 -58.77319336 27.37719727 C-58.90445362 20.2736529 -58.41838393 14.21033159 -54.375 8.1875 C-53.68083984 7.14529297 -53.68083984 7.14529297 -52.97265625 6.08203125 C-40.58071956 -10.06687403 -15.91121446 -11.03138103 0 0 Z M-30.375 14.1875 C-31.035 15.5075 -31.695 16.8275 -32.375 18.1875 C-26.435 18.1875 -20.495 18.1875 -14.375 18.1875 C-15.85139003 13.12741361 -15.85139003 13.12741361 -19.375 11.1875 C-23.99862084 10.68493252 -26.6948911 11.32519308 -30.375 14.1875 Z " fill="#94DD13" transform="translate(538.375,57.8125)"/>
<path d="M0 0 C24.42 0 48.84 0 74 0 C74 6.93 74 13.86 74 21 C66.08 21 58.16 21 50 21 C50 40.47 50 59.94 50 80 C41.09 80 32.18 80 23 80 C23 60.53 23 41.06 23 21 C15.41 21 7.82 21 0 21 C0 14.07 0 7.14 0 0 Z " fill="#293D3C" transform="translate(15,35)"/>
<path d="M0 0 C8.91 0 17.82 0 27 0 C27 19.14 27 38.28 27 58 C38.88 58 50.76 58 63 58 C63 65.26 63 72.52 63 80 C42.21 80 21.42 80 0 80 C0 53.6 0 27.2 0 0 Z " fill="#649533" transform="translate(218,35)"/>
<path d="M0 0 C8.58 0 17.16 0 26 0 C26 5.61 26 11.22 26 17 C30.29 17 34.58 17 39 17 C39 23.6 39 30.2 39 37 C34.71 37 30.42 37 26 37 C26.08691739 39.77236494 26.19377361 42.54147078 26.3125 45.3125 C26.34633789 46.49102539 26.34633789 46.49102539 26.38085938 47.69335938 C26.41630859 48.45068359 26.45175781 49.20800781 26.48828125 49.98828125 C26.51446533 50.68477783 26.54064941 51.38127441 26.56762695 52.09887695 C27.13116809 54.57673966 27.95221738 55.51736653 30 57 C33.64541845 56.76522801 33.64541845 56.76522801 37 56 C39.70071112 62.27980887 41.70024676 68.28460827 43 75 C32.31010206 78.8956678 22.64213044 79.37655276 12 75 C6.86145794 72.14525441 3.35324303 68.97521518 0.8984375 63.578125 C-0.39788491 58.4153801 -0.20983484 53.42391443 -0.125 48.125 C-0.11597656 47.05507812 -0.10695312 45.98515625 -0.09765625 44.8828125 C-0.07419342 42.25497561 -0.04136459 39.62760594 0 37 C-2.97 37 -5.94 37 -9 37 C-9 30.4 -9 23.8 -9 17 C-6.03 17 -3.06 17 0 17 C0 11.39 0 5.78 0 0 Z " fill="#557E37" transform="translate(169,38)"/>
</svg>
